<?xml version="1.0" encoding="UTF-8" standalone="no"?>
<!-- Created with Inkscape (http://www.inkscape.org/) -->

<svg
   width="27.308935mm"
   height="28.368101mm"
   viewBox="0 0 27.308935 28.368101"
   version="1.1"
   id="svg1"
   xml:space="preserve"
   xmlns:inkscape="http://www.inkscape.org/namespaces/inkscape"
   xmlns:sodipodi="http://sodipodi.sourceforge.net/DTD/sodipodi-0.dtd"
   xmlns="http://www.w3.org/2000/svg"
   xmlns:svg="http://www.w3.org/2000/svg"><sodipodi:namedview
     id="namedview1"
     pagecolor="#ffffff"
     bordercolor="#000000"
     borderopacity="0.25"
     inkscape:showpageshadow="2"
     inkscape:pageopacity="0.0"
     inkscape:pagecheckerboard="0"
     inkscape:deskcolor="#d1d1d1"
     inkscape:document-units="mm"><inkscape:page
       x="0"
       y="0"
       width="27.308935"
       height="28.368101"
       id="page2"
       margin="0"
       bleed="0" /></sodipodi:namedview><defs
     id="defs1" /><g
     inkscape:label="Layer 1"
     inkscape:groupmode="layer"
     id="layer1"
     transform="translate(-135.12743,-191.31039)"><path
       style="fill:#000000"
       d="m 149.03415,219.66011 8.73125,-0.0435 1.05833,-0.49429 c 0.58208,-0.27186 1.36285,-0.78779 1.73503,-1.14653 0.37219,-0.35873 0.86821,-1.02649 1.10228,-1.48391 0.23406,-0.45742 0.50345,-1.37023 0.59862,-2.02847 0.0952,-0.65824 0.17463,-4.96191 0.17655,-9.5637 0.003,-7.05597 -0.0397,-8.52072 -0.27203,-9.34861 -0.15154,-0.53994 -0.54877,-1.35817 -0.88273,-1.81828 -0.33396,-0.46011 -1.02357,-1.11133 -1.53246,-1.44715 -0.50889,-0.33582 -1.28245,-0.69164 -1.71901,-0.79072 -0.4773,-0.10832 -4.0778,-0.18185 -9.03125,-0.18445 -5.32005,-0.003 -8.56854,0.0644 -9.17222,0.18959 -0.5141,0.10665 -1.25886,0.38007 -1.65503,0.6076 -0.39617,0.22754 -1.01688,0.74197 -1.37936,1.14319 -0.36247,0.40122 -0.8278,1.10014 -1.03406,1.55316 -0.35712,0.78436 -0.38313,1.22782 -0.54505,9.29035 -0.12073,6.01165 -0.1142,8.91326 0.0225,10.00685 0.14312,1.14477 0.33891,1.81477 0.76264,2.60977 0.31578,0.59247 0.88745,1.32095 1.28157,1.63309 0.39132,0.30993 1.23161,0.74263 1.86732,0.96155 1.1463,0.39475 1.22789,0.39768 9.88709,0.3545 z m -4.80442,-7.0109 c -0.52669,0 -1.01054,-0.0529 -1.07521,-0.11759 -0.0647,-0.0647 -0.11759,-0.62815 -0.11759,-1.25217 0,-0.64848 0.11457,-1.37602 0.26743,-1.69814 0.14709,-0.30997 0.49668,-0.69899 0.77687,-0.8645 0.33014,-0.19503 0.88784,-0.30093 1.58465,-0.30093 h 1.07521 v 1.25216 c 0,0.75356 -0.10649,1.47657 -0.26743,1.81573 -0.14709,0.30997 -0.49668,0.699 -0.77687,0.86451 -0.31172,0.18414 -0.88109,0.30093 -1.46706,0.30093 z m -1.12387,-4.58611 c -0.0379,0 -0.0689,-0.64285 -0.0689,-1.42855 0,-0.95679 0.0952,-1.62924 0.28836,-2.03625 0.15861,-0.33423 0.53564,-0.74264 0.83785,-0.90758 0.46209,-0.2522 1.07988,-0.30006 3.88455,-0.30091 l 3.33506,-0.001 -0.0389,1.41111 c -0.0245,0.89179 -0.13554,1.56007 -0.30158,1.81586 -0.1445,0.22261 -0.46219,0.48058 -0.70596,0.57327 -0.24378,0.0927 -1.60885,0.17026 -3.03349,0.17239 -2.19848,0.003 -2.70655,0.0566 -3.35916,0.35277 -0.42291,0.1919 -0.79994,0.34891 -0.83785,0.34891 z m 0.48271,-5.13197 -0.59488,0.42427 0.0729,-1.74719 c 0.0535,-1.28248 0.15586,-1.87217 0.38472,-2.21707 0.17149,-0.25843 0.57712,-0.59577 0.90139,-0.74965 0.49325,-0.23406 1.37071,-0.27978 5.36953,-0.27978 h 4.77994 v 1.37186 c 0,0.95411 -0.0833,1.49083 -0.27363,1.76253 -0.15049,0.21486 -0.44815,0.49049 -0.66145,0.61251 -0.27122,0.15514 -1.74032,0.24837 -4.88575,0.31004 -4.39975,0.0863 -4.5109,0.0975 -5.0928,0.51248 z"
       id="path2"
       sodipodi:nodetypes="ccsssscsssscsssssssssscsssssscsssssssssccsscsssccsssscsssssc" /></g></svg>
