<?xml version="1.0" encoding="UTF-8" standalone="no"?>
<!-- Created with Inkscape (http://www.inkscape.org/) -->

<svg
   width="11.682408mm"
   height="14.547948mm"
   viewBox="0 0 11.682408 14.547948"
   version="1.1"
   id="svg1"
   xml:space="preserve"
   sodipodi:docname="folio-app.svg"
   xmlns:inkscape="http://www.inkscape.org/namespaces/inkscape"
   xmlns:sodipodi="http://sodipodi.sourceforge.net/DTD/sodipodi-0.dtd"
   xmlns="http://www.w3.org/2000/svg"
   xmlns:svg="http://www.w3.org/2000/svg"><sodipodi:namedview
     id="namedview1"
     pagecolor="#ffffff"
     bordercolor="#000000"
     borderopacity="0.25"
     inkscape:showpageshadow="2"
     inkscape:pageopacity="0.0"
     inkscape:pagecheckerboard="0"
     inkscape:deskcolor="#d1d1d1"
     inkscape:document-units="mm"><inkscape:page
       x="0"
       y="0"
       width="11.682408"
       height="14.547948"
       id="page1"
       margin="0"
       bleed="0" /></sodipodi:namedview><defs
     id="defs1" /><g
     inkscape:label="Layer 1"
     inkscape:groupmode="layer"
     id="layer1"
     transform="translate(-142.99454,-198.24856)"><path
       style="fill:#20201f;fill-opacity:1;stroke-width:0.0834337"
       d="m 143.63236,203.16649 c 0.2279,-0.14023 0.53821,-0.29074 0.68958,-0.33446 0.15137,-0.0437 1.70193,-0.13585 3.44569,-0.20471 4.00882,-0.15832 5.58361,-0.26728 5.91331,-0.40916 0.14344,-0.0617 0.40326,-0.26069 0.5774,-0.44215 l 0.31661,-0.32993 0.051,-1.59876 0.051,-1.59876 -0.4928,0.002 c -2.27206,0.009 -9.00985,0.17824 -9.35555,0.23482 -0.77851,0.12742 -1.42854,0.74458 -1.60062,1.5197 -0.11328,0.51025 -0.28189,2.97558 -0.22029,3.221 0.0635,0.2528 0.12673,0.24676 0.62459,-0.0596 z"
       id="path8" /><path
       style="fill:#20201f;fill-opacity:1;stroke-width:0.0834337"
       d="m 143.88382,207.97036 c 0.74224,-0.31769 0.90525,-0.33566 4.91818,-0.54222 1.7927,-0.0923 2.09833,-0.17456 2.36382,-0.63634 0.2011,-0.34977 0.29194,-0.93905 0.35768,-2.32025 l 0.0553,-1.1609 -3.32915,0.0553 c -3.79268,0.0629 -3.95566,0.0864 -4.51869,0.6494 -0.41908,0.41908 -0.55803,0.8471 -0.68431,2.10792 -0.0996,0.99467 -0.0281,2.13738 0.13371,2.13738 0.014,0 0.33055,-0.13061 0.70351,-0.29025 z"
       id="path7" /><path
       style="fill:#20201f;fill-opacity:1;stroke-width:0.0834337"
       d="m 145.4392,212.63605 c 1.05477,-0.29129 1.39815,-1.04545 1.50955,-3.31532 l 0.0524,-1.06744 -0.57624,0.0515 c -0.91416,0.0817 -1.71828,0.19586 -2.05805,0.29229 -0.47761,0.13556 -0.93642,0.62258 -1.09784,1.16537 -0.29351,0.98693 -0.32382,2.54674 -0.0558,2.86972 0.18037,0.21733 1.44509,0.21955 2.22596,0.004 z"
       id="path6" /></g></svg>
